<mxfile host="app.diagrams.net" modified="2024-03-28T10:27:28.893Z" agent="Mozilla/5.0 (Macintosh; Intel Mac OS X 10_15_7) AppleWebKit/537.36 (KHTML, like Gecko) Chrome/123.0.0.0 Safari/537.36" etag="TcYdeHenwoPfDzeqeS3h" version="24.2.0" type="github">
  <diagram id="C5RBs43oDa-KdzZeNtuy" name="Page-1">
    <mxGraphModel dx="1434" dy="795" grid="1" gridSize="10" guides="1" tooltips="1" connect="1" arrows="1" fold="1" page="1" pageScale="1" pageWidth="827" pageHeight="1169" math="0" shadow="0">
      <root>
        <mxCell id="WIyWlLk6GJQsqaUBKTNV-0" />
        <mxCell id="WIyWlLk6GJQsqaUBKTNV-1" parent="WIyWlLk6GJQsqaUBKTNV-0" />
        <mxCell id="ixGZPzWQaoTAjSbG5yT1-7" value="feature/*" style="rounded=0;whiteSpace=wrap;html=1;fontStyle=0;fillColor=#bac8d3;strokeColor=#23445d;" parent="WIyWlLk6GJQsqaUBKTNV-1" vertex="1">
          <mxGeometry x="37.5" y="3330" width="105" height="40" as="geometry" />
        </mxCell>
        <mxCell id="oq_p0iZETmjGSR7xj0-a-7" value="- setup.yaml&lt;br&gt;- build-app.yaml&lt;br&gt;- docker-build-acr.yaml&lt;br&gt;- helm-build-chart.yaml&lt;br&gt;- helm-aks.yaml" style="whiteSpace=wrap;html=1;align=left;" parent="WIyWlLk6GJQsqaUBKTNV-1" vertex="1">
          <mxGeometry x="30" y="220" width="170" height="100" as="geometry" />
        </mxCell>
        <mxCell id="ENWFnSOeBy6cw1nGGWTw-10" value="&lt;b&gt;Starter Workflow&lt;/b&gt;&lt;br&gt;- workflow template&lt;br&gt;- reused workflow" style="whiteSpace=wrap;html=1;align=left;" parent="WIyWlLk6GJQsqaUBKTNV-1" vertex="1">
          <mxGeometry x="200" y="220" width="120" height="60" as="geometry" />
        </mxCell>
        <UserObject label="self-hosted-runner-on-kubernetes&lt;br&gt;" link="https://blog.opstree.com/2023/04/18/github-self-hosted-runner-on-kubernetes/" id="qq9qIuuZ3JPeEX_20FzZ-5">
          <mxCell style="text;html=1;align=center;verticalAlign=middle;resizable=0;points=[];autosize=1;strokeColor=none;fillColor=none;fontStyle=0" parent="WIyWlLk6GJQsqaUBKTNV-1" vertex="1">
            <mxGeometry x="30" y="1380" width="200" height="30" as="geometry" />
          </mxCell>
        </UserObject>
        <mxCell id="c8sxnvZn8iMgc1AVpzlQ-0" value="&lt;b&gt;Deployment Flow&lt;/b&gt;" style="text;html=1;align=center;verticalAlign=middle;resizable=0;points=[];autosize=1;strokeColor=none;fillColor=none;" parent="WIyWlLk6GJQsqaUBKTNV-1" vertex="1">
          <mxGeometry x="55" y="1930" width="120" height="30" as="geometry" />
        </mxCell>
        <mxCell id="c8sxnvZn8iMgc1AVpzlQ-2" value="Branch: feature/*&lt;br&gt;namespace: prefix-feature-*" style="text;html=1;align=left;verticalAlign=middle;resizable=0;points=[];autosize=1;strokeColor=none;fillColor=none;" parent="WIyWlLk6GJQsqaUBKTNV-1" vertex="1">
          <mxGeometry x="45" y="1955" width="170" height="40" as="geometry" />
        </mxCell>
        <mxCell id="c8sxnvZn8iMgc1AVpzlQ-10" value="Branch: rc/*&lt;br&gt;namespace: prefix-dev" style="text;html=1;align=left;verticalAlign=middle;resizable=0;points=[];autosize=1;strokeColor=none;fillColor=none;" parent="WIyWlLk6GJQsqaUBKTNV-1" vertex="1">
          <mxGeometry x="43.00000000000001" y="2280" width="140" height="40" as="geometry" />
        </mxCell>
        <mxCell id="c8sxnvZn8iMgc1AVpzlQ-20" value="" style="group" parent="WIyWlLk6GJQsqaUBKTNV-1" vertex="1" connectable="0">
          <mxGeometry x="80" y="2010" width="697" height="154" as="geometry" />
        </mxCell>
        <mxCell id="c8sxnvZn8iMgc1AVpzlQ-3" value="Setup environment" style="whiteSpace=wrap;html=1;" parent="c8sxnvZn8iMgc1AVpzlQ-20" vertex="1">
          <mxGeometry y="32" width="90" height="40" as="geometry" />
        </mxCell>
        <mxCell id="c8sxnvZn8iMgc1AVpzlQ-4" value="Build Images" style="whiteSpace=wrap;html=1;" parent="c8sxnvZn8iMgc1AVpzlQ-20" vertex="1">
          <mxGeometry x="137" y="32" width="80" height="40" as="geometry" />
        </mxCell>
        <mxCell id="c8sxnvZn8iMgc1AVpzlQ-16" style="edgeStyle=orthogonalEdgeStyle;rounded=0;orthogonalLoop=1;jettySize=auto;html=1;exitX=1;exitY=0.5;exitDx=0;exitDy=0;entryX=0;entryY=0.5;entryDx=0;entryDy=0;" parent="c8sxnvZn8iMgc1AVpzlQ-20" source="c8sxnvZn8iMgc1AVpzlQ-3" target="c8sxnvZn8iMgc1AVpzlQ-4" edge="1">
          <mxGeometry relative="1" as="geometry" />
        </mxCell>
        <mxCell id="c8sxnvZn8iMgc1AVpzlQ-6" value="Build helm chart" style="whiteSpace=wrap;html=1;" parent="c8sxnvZn8iMgc1AVpzlQ-20" vertex="1">
          <mxGeometry x="260.99999999999994" y="32" width="100" height="40" as="geometry" />
        </mxCell>
        <mxCell id="c8sxnvZn8iMgc1AVpzlQ-17" style="edgeStyle=orthogonalEdgeStyle;rounded=0;orthogonalLoop=1;jettySize=auto;html=1;exitX=1;exitY=0.5;exitDx=0;exitDy=0;entryX=0;entryY=0.5;entryDx=0;entryDy=0;" parent="c8sxnvZn8iMgc1AVpzlQ-20" source="c8sxnvZn8iMgc1AVpzlQ-4" target="c8sxnvZn8iMgc1AVpzlQ-6" edge="1">
          <mxGeometry relative="1" as="geometry" />
        </mxCell>
        <mxCell id="c8sxnvZn8iMgc1AVpzlQ-7" value="Helm Deploy" style="whiteSpace=wrap;html=1;" parent="c8sxnvZn8iMgc1AVpzlQ-20" vertex="1">
          <mxGeometry x="417" y="31" width="80" height="42" as="geometry" />
        </mxCell>
        <mxCell id="c8sxnvZn8iMgc1AVpzlQ-18" style="edgeStyle=orthogonalEdgeStyle;rounded=0;orthogonalLoop=1;jettySize=auto;html=1;exitX=1;exitY=0.5;exitDx=0;exitDy=0;" parent="c8sxnvZn8iMgc1AVpzlQ-20" source="c8sxnvZn8iMgc1AVpzlQ-6" target="c8sxnvZn8iMgc1AVpzlQ-7" edge="1">
          <mxGeometry relative="1" as="geometry" />
        </mxCell>
        <mxCell id="c8sxnvZn8iMgc1AVpzlQ-9" value="Create pull request" style="whiteSpace=wrap;html=1;" parent="c8sxnvZn8iMgc1AVpzlQ-20" vertex="1">
          <mxGeometry x="547" y="32" width="100" height="40" as="geometry" />
        </mxCell>
        <mxCell id="c8sxnvZn8iMgc1AVpzlQ-19" style="edgeStyle=orthogonalEdgeStyle;rounded=0;orthogonalLoop=1;jettySize=auto;html=1;exitX=1;exitY=0.5;exitDx=0;exitDy=0;" parent="c8sxnvZn8iMgc1AVpzlQ-20" source="c8sxnvZn8iMgc1AVpzlQ-7" target="c8sxnvZn8iMgc1AVpzlQ-9" edge="1">
          <mxGeometry relative="1" as="geometry" />
        </mxCell>
        <mxCell id="c8sxnvZn8iMgc1AVpzlQ-11" value="merge feature/* to main" style="text;html=1;align=center;verticalAlign=middle;resizable=0;points=[];autosize=1;strokeColor=none;fillColor=#CCE5FF;" parent="c8sxnvZn8iMgc1AVpzlQ-20" vertex="1">
          <mxGeometry x="530" y="-8" width="150" height="30" as="geometry" />
        </mxCell>
        <mxCell id="c8sxnvZn8iMgc1AVpzlQ-12" value="clean up namespace feature" style="whiteSpace=wrap;html=1;" parent="c8sxnvZn8iMgc1AVpzlQ-20" vertex="1">
          <mxGeometry x="557" y="122" width="80" height="42" as="geometry" />
        </mxCell>
        <mxCell id="c8sxnvZn8iMgc1AVpzlQ-15" style="edgeStyle=orthogonalEdgeStyle;rounded=0;orthogonalLoop=1;jettySize=auto;html=1;exitX=0.5;exitY=1;exitDx=0;exitDy=0;entryX=0.5;entryY=0;entryDx=0;entryDy=0;" parent="c8sxnvZn8iMgc1AVpzlQ-20" source="c8sxnvZn8iMgc1AVpzlQ-9" target="c8sxnvZn8iMgc1AVpzlQ-12" edge="1">
          <mxGeometry relative="1" as="geometry" />
        </mxCell>
        <mxCell id="c8sxnvZn8iMgc1AVpzlQ-14" value="merged" style="text;html=1;align=center;verticalAlign=middle;resizable=0;points=[];autosize=1;strokeColor=none;fillColor=#CCE5FF;" parent="c8sxnvZn8iMgc1AVpzlQ-20" vertex="1">
          <mxGeometry x="637" y="74" width="60" height="30" as="geometry" />
        </mxCell>
        <mxCell id="c8sxnvZn8iMgc1AVpzlQ-22" value="Setup environment" style="whiteSpace=wrap;html=1;" parent="WIyWlLk6GJQsqaUBKTNV-1" vertex="1">
          <mxGeometry x="59.00000000000001" y="2420" width="90" height="40" as="geometry" />
        </mxCell>
        <mxCell id="c8sxnvZn8iMgc1AVpzlQ-23" value="Build Images" style="whiteSpace=wrap;html=1;" parent="WIyWlLk6GJQsqaUBKTNV-1" vertex="1">
          <mxGeometry x="196" y="2420" width="80" height="40" as="geometry" />
        </mxCell>
        <mxCell id="c8sxnvZn8iMgc1AVpzlQ-24" style="edgeStyle=orthogonalEdgeStyle;rounded=0;orthogonalLoop=1;jettySize=auto;html=1;exitX=1;exitY=0.5;exitDx=0;exitDy=0;entryX=0;entryY=0.5;entryDx=0;entryDy=0;" parent="WIyWlLk6GJQsqaUBKTNV-1" source="c8sxnvZn8iMgc1AVpzlQ-22" target="c8sxnvZn8iMgc1AVpzlQ-23" edge="1">
          <mxGeometry relative="1" as="geometry" />
        </mxCell>
        <mxCell id="c8sxnvZn8iMgc1AVpzlQ-25" value="Build helm chart" style="whiteSpace=wrap;html=1;" parent="WIyWlLk6GJQsqaUBKTNV-1" vertex="1">
          <mxGeometry x="319.99999999999994" y="2420" width="100" height="40" as="geometry" />
        </mxCell>
        <mxCell id="c8sxnvZn8iMgc1AVpzlQ-26" style="edgeStyle=orthogonalEdgeStyle;rounded=0;orthogonalLoop=1;jettySize=auto;html=1;exitX=1;exitY=0.5;exitDx=0;exitDy=0;entryX=0;entryY=0.5;entryDx=0;entryDy=0;" parent="WIyWlLk6GJQsqaUBKTNV-1" source="c8sxnvZn8iMgc1AVpzlQ-23" target="c8sxnvZn8iMgc1AVpzlQ-25" edge="1">
          <mxGeometry relative="1" as="geometry" />
        </mxCell>
        <mxCell id="c8sxnvZn8iMgc1AVpzlQ-37" style="edgeStyle=orthogonalEdgeStyle;rounded=0;orthogonalLoop=1;jettySize=auto;html=1;exitX=1;exitY=0.5;exitDx=0;exitDy=0;entryX=0;entryY=0.5;entryDx=0;entryDy=0;" parent="WIyWlLk6GJQsqaUBKTNV-1" source="c8sxnvZn8iMgc1AVpzlQ-27" target="c8sxnvZn8iMgc1AVpzlQ-35" edge="1">
          <mxGeometry relative="1" as="geometry" />
        </mxCell>
        <mxCell id="c8sxnvZn8iMgc1AVpzlQ-27" value="Helm Deploy" style="whiteSpace=wrap;html=1;" parent="WIyWlLk6GJQsqaUBKTNV-1" vertex="1">
          <mxGeometry x="464" y="2419" width="80" height="42" as="geometry" />
        </mxCell>
        <mxCell id="c8sxnvZn8iMgc1AVpzlQ-28" style="edgeStyle=orthogonalEdgeStyle;rounded=0;orthogonalLoop=1;jettySize=auto;html=1;exitX=1;exitY=0.5;exitDx=0;exitDy=0;" parent="WIyWlLk6GJQsqaUBKTNV-1" source="c8sxnvZn8iMgc1AVpzlQ-25" target="c8sxnvZn8iMgc1AVpzlQ-27" edge="1">
          <mxGeometry relative="1" as="geometry" />
        </mxCell>
        <mxCell id="c8sxnvZn8iMgc1AVpzlQ-38" style="edgeStyle=orthogonalEdgeStyle;rounded=0;orthogonalLoop=1;jettySize=auto;html=1;exitX=1;exitY=0.5;exitDx=0;exitDy=0;" parent="WIyWlLk6GJQsqaUBKTNV-1" source="c8sxnvZn8iMgc1AVpzlQ-35" target="c8sxnvZn8iMgc1AVpzlQ-36" edge="1">
          <mxGeometry relative="1" as="geometry" />
        </mxCell>
        <mxCell id="c8sxnvZn8iMgc1AVpzlQ-35" value="Git push tag" style="whiteSpace=wrap;html=1;" parent="WIyWlLk6GJQsqaUBKTNV-1" vertex="1">
          <mxGeometry x="584" y="2419" width="80" height="42" as="geometry" />
        </mxCell>
        <mxCell id="c8sxnvZn8iMgc1AVpzlQ-36" value="DevSevOps" style="whiteSpace=wrap;html=1;" parent="WIyWlLk6GJQsqaUBKTNV-1" vertex="1">
          <mxGeometry x="704" y="2419" width="80" height="42" as="geometry" />
        </mxCell>
        <mxCell id="c8sxnvZn8iMgc1AVpzlQ-39" value="Promote Alpha&lt;br&gt;namespace: prefix-alpha" style="text;html=1;align=left;verticalAlign=middle;resizable=0;points=[];autosize=1;strokeColor=none;fillColor=none;" parent="WIyWlLk6GJQsqaUBKTNV-1" vertex="1">
          <mxGeometry x="51.00000000000001" y="2580" width="150" height="40" as="geometry" />
        </mxCell>
        <mxCell id="c8sxnvZn8iMgc1AVpzlQ-49" style="edgeStyle=orthogonalEdgeStyle;rounded=0;orthogonalLoop=1;jettySize=auto;html=1;exitX=1;exitY=0.5;exitDx=0;exitDy=0;entryX=0;entryY=0.5;entryDx=0;entryDy=0;" parent="WIyWlLk6GJQsqaUBKTNV-1" source="c8sxnvZn8iMgc1AVpzlQ-40" target="c8sxnvZn8iMgc1AVpzlQ-47" edge="1">
          <mxGeometry relative="1" as="geometry" />
        </mxCell>
        <mxCell id="c8sxnvZn8iMgc1AVpzlQ-40" value="Setup environment" style="whiteSpace=wrap;html=1;" parent="WIyWlLk6GJQsqaUBKTNV-1" vertex="1">
          <mxGeometry x="296.5" y="2640" width="90" height="40" as="geometry" />
        </mxCell>
        <mxCell id="c8sxnvZn8iMgc1AVpzlQ-47" value="Helm Deploy" style="whiteSpace=wrap;html=1;" parent="WIyWlLk6GJQsqaUBKTNV-1" vertex="1">
          <mxGeometry x="443.5" y="2640" width="73" height="40" as="geometry" />
        </mxCell>
        <mxCell id="c8sxnvZn8iMgc1AVpzlQ-51" value="activity&amp;nbsp;&lt;br&gt;&lt;div style=&quot;&quot;&gt;&lt;span style=&quot;background-color: initial;&quot;&gt;- push to release branch (rc/*)&lt;/span&gt;&lt;/div&gt;" style="text;html=1;align=left;verticalAlign=middle;resizable=0;points=[];autosize=1;strokeColor=none;fillColor=none;" parent="WIyWlLk6GJQsqaUBKTNV-1" vertex="1">
          <mxGeometry x="43.00000000000001" y="2240" width="180" height="40" as="geometry" />
        </mxCell>
        <mxCell id="c8sxnvZn8iMgc1AVpzlQ-52" value="activity&amp;nbsp;&lt;br&gt;&lt;div style=&quot;&quot;&gt;&lt;span style=&quot;background-color: initial;&quot;&gt;- create gh release using latest rc/* tag&lt;/span&gt;&lt;/div&gt;" style="text;html=1;align=left;verticalAlign=middle;resizable=0;points=[];autosize=1;strokeColor=none;fillColor=none;" parent="WIyWlLk6GJQsqaUBKTNV-1" vertex="1">
          <mxGeometry x="51.00000000000001" y="2530" width="230" height="40" as="geometry" />
        </mxCell>
        <mxCell id="c8sxnvZn8iMgc1AVpzlQ-54" style="edgeStyle=orthogonalEdgeStyle;rounded=0;orthogonalLoop=1;jettySize=auto;html=1;exitX=0.5;exitY=1;exitDx=0;exitDy=0;entryX=0.5;entryY=0;entryDx=0;entryDy=0;" parent="WIyWlLk6GJQsqaUBKTNV-1" source="c8sxnvZn8iMgc1AVpzlQ-53" target="c8sxnvZn8iMgc1AVpzlQ-22" edge="1">
          <mxGeometry relative="1" as="geometry" />
        </mxCell>
        <mxCell id="c8sxnvZn8iMgc1AVpzlQ-53" value="workflow is triggered on push&amp;nbsp; release/**" style="whiteSpace=wrap;html=1;" parent="WIyWlLk6GJQsqaUBKTNV-1" vertex="1">
          <mxGeometry x="59.00000000000001" y="2348" width="101" height="42" as="geometry" />
        </mxCell>
        <mxCell id="c8sxnvZn8iMgc1AVpzlQ-56" style="edgeStyle=orthogonalEdgeStyle;rounded=0;orthogonalLoop=1;jettySize=auto;html=1;exitX=1;exitY=0.5;exitDx=0;exitDy=0;entryX=0;entryY=0.5;entryDx=0;entryDy=0;" parent="WIyWlLk6GJQsqaUBKTNV-1" source="c8sxnvZn8iMgc1AVpzlQ-55" target="c8sxnvZn8iMgc1AVpzlQ-40" edge="1">
          <mxGeometry relative="1" as="geometry" />
        </mxCell>
        <mxCell id="c8sxnvZn8iMgc1AVpzlQ-55" value="workflow is triggered on push new gh release" style="whiteSpace=wrap;html=1;" parent="WIyWlLk6GJQsqaUBKTNV-1" vertex="1">
          <mxGeometry x="160" y="2639" width="101" height="42" as="geometry" />
        </mxCell>
        <mxCell id="VpuWoSAb_P0Iv6lTYFVo-14" value="" style="group" parent="WIyWlLk6GJQsqaUBKTNV-1" vertex="1" connectable="0">
          <mxGeometry x="57" y="2870" width="712.25" height="300" as="geometry" />
        </mxCell>
        <mxCell id="VpuWoSAb_P0Iv6lTYFVo-6" value="" style="whiteSpace=wrap;html=1;" parent="VpuWoSAb_P0Iv6lTYFVo-14" vertex="1">
          <mxGeometry x="261.25" width="250" height="300" as="geometry" />
        </mxCell>
        <mxCell id="VpuWoSAb_P0Iv6lTYFVo-1" value="repo: Terraform Script&lt;br&gt;- VM / .tf&lt;br&gt;- ??? / tf" style="whiteSpace=wrap;html=1;" parent="VpuWoSAb_P0Iv6lTYFVo-14" vertex="1">
          <mxGeometry x="2.25" y="103" width="170" height="50" as="geometry" />
        </mxCell>
        <mxCell id="VpuWoSAb_P0Iv6lTYFVo-2" value="repo: Terraform Configuration&lt;br&gt;- VM / config-dev.json&lt;br&gt;&amp;nbsp; &amp;nbsp; &amp;nbsp; &amp;nbsp; &amp;nbsp; &amp;nbsp; &amp;nbsp;/ config-staging.json" style="whiteSpace=wrap;html=1;" parent="VpuWoSAb_P0Iv6lTYFVo-14" vertex="1">
          <mxGeometry y="173" width="170.5" height="50" as="geometry" />
        </mxCell>
        <mxCell id="VpuWoSAb_P0Iv6lTYFVo-5" value="Azure&lt;br&gt;dev&lt;br&gt;staging" style="whiteSpace=wrap;html=1;" parent="VpuWoSAb_P0Iv6lTYFVo-14" vertex="1">
          <mxGeometry x="592.25" y="108" width="120" height="60" as="geometry" />
        </mxCell>
        <mxCell id="VpuWoSAb_P0Iv6lTYFVo-13" style="edgeStyle=orthogonalEdgeStyle;rounded=0;orthogonalLoop=1;jettySize=auto;html=1;exitX=1;exitY=0.5;exitDx=0;exitDy=0;entryX=-0.021;entryY=0.597;entryDx=0;entryDy=0;entryPerimeter=0;" parent="VpuWoSAb_P0Iv6lTYFVo-14" source="VpuWoSAb_P0Iv6lTYFVo-6" target="VpuWoSAb_P0Iv6lTYFVo-5" edge="1">
          <mxGeometry relative="1" as="geometry" />
        </mxCell>
        <mxCell id="VpuWoSAb_P0Iv6lTYFVo-7" value="config-${env}.json&amp;nbsp;" style="whiteSpace=wrap;html=1;" parent="VpuWoSAb_P0Iv6lTYFVo-14" vertex="1">
          <mxGeometry x="336.25" y="180" width="103.15" height="27" as="geometry" />
        </mxCell>
        <mxCell id="VpuWoSAb_P0Iv6lTYFVo-12" style="edgeStyle=orthogonalEdgeStyle;rounded=0;orthogonalLoop=1;jettySize=auto;html=1;exitX=1;exitY=0.5;exitDx=0;exitDy=0;entryX=0;entryY=0.5;entryDx=0;entryDy=0;" parent="VpuWoSAb_P0Iv6lTYFVo-14" source="VpuWoSAb_P0Iv6lTYFVo-2" target="VpuWoSAb_P0Iv6lTYFVo-7" edge="1">
          <mxGeometry relative="1" as="geometry" />
        </mxCell>
        <mxCell id="VpuWoSAb_P0Iv6lTYFVo-8" value="terraform name" style="whiteSpace=wrap;html=1;" parent="VpuWoSAb_P0Iv6lTYFVo-14" vertex="1">
          <mxGeometry x="336.25" y="113" width="100" height="30" as="geometry" />
        </mxCell>
        <mxCell id="VpuWoSAb_P0Iv6lTYFVo-11" style="edgeStyle=orthogonalEdgeStyle;rounded=0;orthogonalLoop=1;jettySize=auto;html=1;exitX=1;exitY=0.5;exitDx=0;exitDy=0;entryX=0;entryY=0.5;entryDx=0;entryDy=0;" parent="VpuWoSAb_P0Iv6lTYFVo-14" source="VpuWoSAb_P0Iv6lTYFVo-1" target="VpuWoSAb_P0Iv6lTYFVo-8" edge="1">
          <mxGeometry relative="1" as="geometry" />
        </mxCell>
        <mxCell id="VpuWoSAb_P0Iv6lTYFVo-9" value="&lt;b&gt;GitHub Action with I&lt;span style=&quot;&quot;&gt;nput Params&lt;/span&gt;&lt;/b&gt;&lt;br style=&quot;border-color: var(--border-color);&quot;&gt;- &lt;b&gt;terraform name&lt;/b&gt; : ex.VM&lt;br style=&quot;border-color: var(--border-color);&quot;&gt;- &lt;b&gt;target env&lt;/b&gt;: DEV , Staging" style="text;html=1;align=center;verticalAlign=middle;resizable=0;points=[];autosize=1;strokeColor=none;fillColor=none;" parent="VpuWoSAb_P0Iv6lTYFVo-14" vertex="1">
          <mxGeometry x="276.16" y="10" width="210" height="60" as="geometry" />
        </mxCell>
        <mxCell id="qq9qIuuZ3JPeEX_20FzZ-7" value="" style="shape=image;verticalLabelPosition=bottom;labelBackgroundColor=default;verticalAlign=top;aspect=fixed;imageAspect=0;image=https://blog2opstree.files.wordpress.com/2023/03/diagram.png?w=859;" parent="WIyWlLk6GJQsqaUBKTNV-1" vertex="1">
          <mxGeometry x="51" y="1440" width="715.83" height="390" as="geometry" />
        </mxCell>
        <mxCell id="ixGZPzWQaoTAjSbG5yT1-10" value="rc/*" style="rounded=0;whiteSpace=wrap;html=1;fillColor=#bac8d3;strokeColor=#23445d;" parent="WIyWlLk6GJQsqaUBKTNV-1" vertex="1">
          <mxGeometry x="37.5" y="3390" width="105" height="40" as="geometry" />
        </mxCell>
        <mxCell id="ixGZPzWQaoTAjSbG5yT1-12" value="Branching" style="shape=parallelogram;perimeter=parallelogramPerimeter;whiteSpace=wrap;html=1;fixedSize=1;fillColor=#bac8d3;strokeColor=#23445d;" parent="WIyWlLk6GJQsqaUBKTNV-1" vertex="1">
          <mxGeometry x="30" y="3250" width="130" height="40" as="geometry" />
        </mxCell>
        <mxCell id="ixGZPzWQaoTAjSbG5yT1-13" value="feature-branch" style="rounded=1;whiteSpace=wrap;html=1;fillColor=#fff2cc;fontStyle=0;fillStyle=auto;labelPadding=0;absoluteArcSize=0;glass=0;shadow=0;strokeColor=#d6b656;fontSize=12;imageWidth=24;imageHeight=24;strokeWidth=1;perimeterSpacing=0;" parent="WIyWlLk6GJQsqaUBKTNV-1" vertex="1">
          <mxGeometry x="265" y="3330" width="105" height="40" as="geometry" />
        </mxCell>
        <mxCell id="ixGZPzWQaoTAjSbG5yT1-14" value="dev" style="rounded=1;whiteSpace=wrap;html=1;fillColor=#dae8fc;fontStyle=0;fillStyle=auto;labelPadding=0;absoluteArcSize=0;glass=0;shadow=0;strokeColor=#6c8ebf;gradientColor=#7ea6e0;fontSize=12;imageWidth=24;imageHeight=24;strokeWidth=1;perimeterSpacing=0;" parent="WIyWlLk6GJQsqaUBKTNV-1" vertex="1">
          <mxGeometry x="265" y="3390" width="105" height="40" as="geometry" />
        </mxCell>
        <mxCell id="ixGZPzWQaoTAjSbG5yT1-15" value="pt" style="rounded=1;whiteSpace=wrap;html=1;fillColor=#CCFFFF;fontStyle=0;gradientColor=none;fillStyle=auto;labelPadding=0;absoluteArcSize=0;glass=0;shadow=0;fontSize=12;imageWidth=24;imageHeight=24;strokeWidth=1;perimeterSpacing=0;" parent="WIyWlLk6GJQsqaUBKTNV-1" vertex="1">
          <mxGeometry x="265" y="3450" width="105" height="40" as="geometry" />
        </mxCell>
        <mxCell id="ixGZPzWQaoTAjSbG5yT1-16" value="ps" style="rounded=1;whiteSpace=wrap;html=1;fillColor=#fff2cc;fontStyle=0;gradientColor=#ffd966;fillStyle=auto;labelPadding=0;absoluteArcSize=0;glass=0;shadow=0;strokeColor=#d6b656;fontSize=12;imageWidth=24;imageHeight=24;strokeWidth=1;perimeterSpacing=0;" parent="WIyWlLk6GJQsqaUBKTNV-1" vertex="1">
          <mxGeometry x="265" y="3507" width="105" height="40" as="geometry" />
        </mxCell>
        <mxCell id="ixGZPzWQaoTAjSbG5yT1-17" value="sit" style="rounded=1;whiteSpace=wrap;html=1;fillColor=#dae8fc;fontStyle=0;fillStyle=auto;labelPadding=0;absoluteArcSize=0;glass=0;shadow=0;strokeColor=#6c8ebf;gradientColor=#7ea6e0;fontSize=12;imageWidth=24;imageHeight=24;strokeWidth=1;perimeterSpacing=0;" parent="WIyWlLk6GJQsqaUBKTNV-1" vertex="1">
          <mxGeometry x="400" y="3390" width="105" height="40" as="geometry" />
        </mxCell>
        <mxCell id="ixGZPzWQaoTAjSbG5yT1-18" value="prod" style="rounded=1;whiteSpace=wrap;html=1;fillColor=#f8cecc;fontStyle=0;gradientColor=#ea6b66;fillStyle=auto;labelPadding=0;absoluteArcSize=0;glass=0;shadow=0;strokeColor=#b85450;fontSize=12;imageWidth=24;imageHeight=24;strokeWidth=1;perimeterSpacing=0;" parent="WIyWlLk6GJQsqaUBKTNV-1" vertex="1">
          <mxGeometry x="265" y="3570" width="105" height="40" as="geometry" />
        </mxCell>
        <mxCell id="ixGZPzWQaoTAjSbG5yT1-19" value="uat" style="rounded=1;whiteSpace=wrap;html=1;fillColor=#CCFFFF;fontStyle=0;gradientColor=none;fillStyle=auto;labelPadding=0;absoluteArcSize=0;glass=0;shadow=0;fontSize=12;imageWidth=24;imageHeight=24;strokeWidth=1;perimeterSpacing=0;" parent="WIyWlLk6GJQsqaUBKTNV-1" vertex="1">
          <mxGeometry x="400" y="3450" width="110" height="40" as="geometry" />
        </mxCell>
        <mxCell id="ixGZPzWQaoTAjSbG5yT1-20" value="" style="endArrow=none;html=1;rounded=0;" parent="WIyWlLk6GJQsqaUBKTNV-1" edge="1">
          <mxGeometry width="50" height="50" relative="1" as="geometry">
            <mxPoint x="15" y="3380" as="sourcePoint" />
            <mxPoint x="625" y="3380" as="targetPoint" />
          </mxGeometry>
        </mxCell>
        <mxCell id="ixGZPzWQaoTAjSbG5yT1-21" value="" style="endArrow=none;html=1;rounded=0;" parent="WIyWlLk6GJQsqaUBKTNV-1" edge="1">
          <mxGeometry width="50" height="50" relative="1" as="geometry">
            <mxPoint x="15" y="3440" as="sourcePoint" />
            <mxPoint x="625" y="3440" as="targetPoint" />
          </mxGeometry>
        </mxCell>
        <mxCell id="ixGZPzWQaoTAjSbG5yT1-22" value="Build" style="ellipse;whiteSpace=wrap;html=1;fillColor=#f5f5f5;fontColor=#333333;strokeColor=#666666;" parent="WIyWlLk6GJQsqaUBKTNV-1" vertex="1">
          <mxGeometry x="570" y="3390" width="50" height="40" as="geometry" />
        </mxCell>
        <mxCell id="ixGZPzWQaoTAjSbG5yT1-23" value="No Build" style="ellipse;whiteSpace=wrap;html=1;fillColor=#f5f5f5;fontColor=#333333;strokeColor=#666666;" parent="WIyWlLk6GJQsqaUBKTNV-1" vertex="1">
          <mxGeometry x="570" y="3530" width="50" height="40" as="geometry" />
        </mxCell>
      </root>
    </mxGraphModel>
  </diagram>
</mxfile>
